<svg id="Capa_1" enable-background="new 0 0 512 512" height="512" viewBox="0 0 512 512" width="512" xmlns="http://www.w3.org/2000/svg"><g><circle cx="256" cy="302.692" fill="#60b7ff" r="209.308"/><path d="m256 93.385c-24.096 0-47.236 4.085-68.779 11.578-.378 3.537-.576 7.127-.576 10.764 0 58.93 66.632 125.882 91.246 148.603 5.143 4.747 13.024 4.897 18.319.32 21.524-18.609 73.888-68.835 87.726-127.61-35.378-27.363-79.751-43.655-127.936-43.655z" fill="#0593fc"/><path d="m154.576 247.041c1.023-4.585 6.591-6.443 10.146-3.372 7.365 6.361 18.842 13.813 33.845 15.511 6.331.717 16.167 1.83 24.782-3.684 11.894-7.613 9.48-20.188 16.72-30.039 18.64-25.36 91.19-18.931 105.021 10.296 6.925 14.634-5.786 24.458 2.059 47.363 7.004 20.448 19.689 20.077 22.652 36.037 5.401 29.103-31.895 56.658-36.037 59.718-1.956 1.445-33.308 24.213-46.333 14.415-8.306-6.248-1.316-19.838-10.296-27.8-9.535-8.453-22.055 2.752-43.244 0-26.751-3.475-53.736-26.422-54.57-47.363-.413-10.384 5.85-13.947 2.811-22.987-4.221-12.556-18.503-12.22-25.463-24.376-2.641-4.614-4.73-11.905-2.093-23.719z" fill="#eaf6ff"/><g><path d="m369.802 319.153c-2.962-15.96-15.648-15.589-22.652-36.037-7.845-22.904 4.866-32.729-2.059-47.363-10.433-22.047-54.275-31.117-83.189-23.36 16.761 3.893 31.294 11.861 36.736 23.36 6.925 14.634-5.786 24.458 2.059 47.363 7.004 20.448 19.689 20.077 22.652 36.037 5.401 29.102-31.895 56.658-36.037 59.718-.406.3-2.093 1.526-4.607 3.183.398 4.42 1.12 8.519 4.727 11.232 13.025 9.798 44.377-12.97 46.333-14.415 4.142-3.06 41.438-30.616 36.037-59.718z" fill="#d8ecfe"/></g><path d="m356.159 100.242c-4.12 67.683-66.832 128.099-90.918 148.923-5.295 4.578-13.176 4.428-18.319-.32-24.614-22.721-91.246-89.673-91.246-148.603-.001-55.362 44.879-100.242 100.241-100.242s103.605 44.982 100.242 100.242z" fill="#fd4755"/><circle cx="256" cy="98.475" fill="#fff" r="37.185"/><path d="m277.027 67.81c.436 2.278.673 4.627.673 7.032 0 20.536-16.648 37.185-37.185 37.185-7.805 0-15.046-2.41-21.027-6.519 3.288 17.173 18.38 30.152 36.512 30.152 20.536 0 37.185-16.648 37.185-37.185 0-12.731-6.402-23.963-16.158-30.665z" fill="#eaeaea"/></g></svg>